<svg id="Capa_1" data-name="Capa 1" xmlns="http://www.w3.org/2000/svg" xmlns:xlink="http://www.w3.org/1999/xlink" viewBox="0 0 3842 2160"><defs><style>.cls-1{fill:url(#radial-gradient);}.cls-2{opacity:0.85;}.cls-3{clip-path:url(#clip-path);}.cls-4{opacity:0.15;}.cls-5{fill:#07ccdb;}</style><radialGradient id="radial-gradient" cx="1989.41" cy="1743.78" r="2979.82" gradientTransform="translate(0 66.9) scale(1 0.56)" gradientUnits="userSpaceOnUse"><stop offset="0" stop-color="#163d5c"/><stop offset="0.13" stop-color="#133552"/><stop offset="0.34" stop-color="#0a2038"/><stop offset="0.38" stop-color="#081b32"/><stop offset="0.46" stop-color="#07162c"/><stop offset="0.78" stop-color="#020617"/><stop offset="1" stop-color="#000010"/></radialGradient><clipPath id="clip-path" transform="translate(2 0)"><rect class="cls-1" x="-2" width="3842" height="2160"/></clipPath></defs><title>background</title><g id="tech_background" class="cls-2"><rect class="cls-1" width="3842" height="2160"/><g class="cls-3"><g class="cls-4"><polygon class="cls-5" points="969.68 963.9 969.12 961.47 1875.99 828.14 1876.54 830.58 969.68 963.9"/><polygon class="cls-5" points="969.68 963.9 969.12 961.47 1875.99 828.14 1876.54 830.58 969.68 963.9"/><polygon class="cls-5" points="1877.79 829.44 1874.72 829.28 1898.43 527.29 1901.49 527.44 1877.79 829.44"/><polygon class="cls-5" points="970.17 963.75 968.62 961.62 1899.17 526.3 1900.74 528.43 970.17 963.75"/><polygon class="cls-5" points="970.17 963.75 968.62 961.62 1899.17 526.3 1900.74 528.43 970.17 963.75"/><polygon class="cls-5" points="1608.48 691.72 1606.72 689.69 1899.08 526.35 1900.83 528.38 1608.48 691.72"/><polygon class="cls-5" points="1875.43 830.4 1606.77 691.75 1608.43 689.67 1877.09 828.32 1875.43 830.4"/><polygon class="cls-5" points="970.11 963.78 968.67 961.59 1606.88 689.62 1608.32 691.8 970.11 963.78"/><polygon class="cls-5" points="970.11 963.78 968.67 961.59 1606.88 689.62 1608.32 691.8 970.11 963.78"/><polygon class="cls-5" points="0 1704.34 970.45 963.58 968.33 961.79 0 1700.92 0 1704.34"/><polygon class="cls-5" points="0 1704.34 970.45 963.58 968.33 961.79 0 1700.92 0 1704.34"/><polygon class="cls-5" points="0 1513.33 139.47 889.79 136.44 889.36 0 1499.34 0 1513.33"/><polygon class="cls-5" points="0 870.51 0 873.02 137.71 890.8 138.19 888.35 0 870.51"/><polygon class="cls-5" points="138.2 890.79 137.69 888.36 1607.35 689.49 1607.85 691.92 138.2 890.79"/><polygon class="cls-5" points="0 963.08 138.79 890.61 137.11 888.53 0 960.13 0 963.08"/><polygon class="cls-5" points="969.22 963.91 137.78 890.8 138.12 888.35 969.56 961.46 969.22 963.91"/><polygon class="cls-5" points="969.22 963.91 137.78 890.8 138.12 888.35 969.56 961.46 969.22 963.91"/><polygon class="cls-5" points="1803.65 1735.59 1606.07 690.89 1609.13 690.52 1806.69 1735.22 1803.65 1735.59"/><polygon class="cls-5" points="1806.72 1735.48 1803.64 1735.33 1898.41 527.29 1901.48 527.44 1806.72 1735.48"/><polygon class="cls-5" points="1806.7 1735.48 1803.64 1735.33 1874.72 829.28 1877.79 829.44 1806.7 1735.48"/><polygon class="cls-5" points="1804.01 1736.21 968.23 963.5 970.55 961.87 1806.33 1734.59 1804.01 1736.21"/><polygon class="cls-5" points="1804.01 1736.21 968.23 963.5 970.55 961.87 1806.33 1734.59 1804.01 1736.21"/><polygon class="cls-5" points="1035.7 1877.98 1035.03 1875.56 1804.83 1734.19 1805.51 1736.61 1035.7 1877.98"/><polygon class="cls-5" points="1034.11 1877.5 136.7 890.3 139.2 888.84 1036.61 1876.04 1034.11 1877.5"/><polygon class="cls-5" points="0 1748.3 0 1750.8 1035.12 1877.99 1035.6 1875.55 0 1748.3"/><polygon class="cls-5" points="1036.81 1877.22 1033.92 1876.32 1606.17 690.26 1609.03 691.16 1036.81 1877.22"/><polygon class="cls-5" points="1036.66 1877.44 1034.06 1876.1 1874.96 828.69 1877.55 830.03 1036.66 1877.44"/><polygon class="cls-5" points="1033.82 1876.84 967.85 962.76 970.93 962.61 1036.9 1876.7 1033.82 1876.84"/><polygon class="cls-5" points="1033.82 1876.84 967.85 962.76 970.93 962.61 1036.9 1876.7 1033.82 1876.84"/><polygon class="cls-5" points="3842 973.06 2686.77 475.37 2685.32 477.56 3842 975.87 3842 973.06"/><polygon class="cls-5" points="1607.97 691.91 1607.23 689.5 2685.68 475.26 2686.41 477.67 1607.97 691.91"/><polygon class="cls-5" points="1900.09 528.6 1899.82 526.13 2685.92 475.23 2686.17 477.7 1900.09 528.6"/><polygon class="cls-5" points="1877 830.45 1875.53 828.27 2685.32 475.38 2686.79 477.55 1877 830.45"/><polygon class="cls-5" points="2668 1896.54 1804.82 1736.61 1805.51 1734.2 2668.7 1894.13 2668 1896.54"/><polygon class="cls-5" points="2667.04 1895.97 1874.93 829.99 1877.57 828.73 2669.68 1894.7 2667.04 1895.97"/><polygon class="cls-5" points="2669.78 1895.8 2666.92 1894.87 2957.57 1314.25 2960.43 1315.17 2669.78 1895.8"/><polygon class="cls-5" points="2957.52 1315.03 2684.55 476.78 2687.53 476.15 2960.5 1314.4 2957.52 1315.03"/><polygon class="cls-5" points="3842 1093.68 2958.55 1313.53 2959.47 1315.89 3842 1096.28 3842 1093.68"/><polygon class="cls-5" points="1805.8 1736.53 1804.53 1734.28 2958.36 1313.59 2959.63 1315.84 1805.8 1736.53"/><polygon class="cls-5" points="2958.24 1315.78 1606.83 691.78 1608.37 689.63 2959.78 1313.64 2958.24 1315.78"/><polygon class="cls-5" points="2957.95 1315.62 1898.91 528.27 1901 526.46 2960.04 1313.8 2957.95 1315.62"/><polygon class="cls-5" points="2958.25 1315.79 1875.51 830.44 1877.01 828.28 2959.75 1313.63 2958.25 1315.79"/><polygon class="cls-5" points="3842 1499.48 2959.39 1313.51 2958.61 1315.91 3842 1502.04 3842 1499.48"/><polygon class="cls-5" points="3842 1792.48 3256.08 1943.88 3257.01 1946.24 3842 1795.08 3842 1792.48"/><polygon class="cls-5" points="3255.1 1945.5 2957.57 1315.15 2960.44 1314.27 3257.98 1944.62 3255.1 1945.5"/><polygon class="cls-5" points="3256.38 1946.29 2668.19 1896.57 2668.52 1894.11 3256.7 1943.83 3256.38 1946.29"/><polygon class="cls-5" points="3842 1256.53 3255.27 1944.36 3257.81 1945.76 3842 1260.91 3842 1256.53"/><polygon class="cls-5" points="3256.27 1946.28 1804.9 1736.62 1805.44 1734.18 3256.81 1943.84 3256.27 1946.28"/><path class="cls-5" d="M971.92,975.08c-8.52,2-17.45-1.9-20-8.76s2.39-14,10.92-16,17.46,1.9,20,8.75S980.45,973.07,971.92,975.08Z" transform="translate(2 0)"/><path class="cls-5" d="M1878.77,841.78c-8.51,2-17.44-1.91-20-8.77s2.38-14,10.91-16,17.47,1.89,20,8.75S1887.31,839.77,1878.77,841.78Z" transform="translate(2 0)"/><path class="cls-5" d="M971.92,975.08c-8.52,2-17.45-1.9-20-8.76s2.39-14,10.92-16,17.46,1.9,20,8.75S980.45,973.07,971.92,975.08Z" transform="translate(2 0)"/><path class="cls-5" d="M1878.77,841.78c-8.51,2-17.44-1.91-20-8.77s2.38-14,10.91-16,17.47,1.89,20,8.75S1887.31,839.77,1878.77,841.78Z" transform="translate(2 0)"/><path class="cls-5" d="M1878.77,841.78c-8.51,2-17.44-1.91-20-8.77s2.38-14,10.91-16,17.47,1.89,20,8.75S1887.31,839.77,1878.77,841.78Z" transform="translate(2 0)"/><path class="cls-5" d="M1902.49,539.77c-8.53,2-17.46-1.91-20-8.76s2.35-14,10.89-16,17.46,1.89,20,8.75S1911,537.75,1902.49,539.77Z" transform="translate(2 0)"/><path class="cls-5" d="M971.92,975.08c-8.52,2-17.45-1.9-20-8.76s2.39-14,10.92-16,17.46,1.9,20,8.75S980.45,973.07,971.92,975.08Z" transform="translate(2 0)"/><path class="cls-5" d="M1902.49,539.77c-8.53,2-17.46-1.91-20-8.76s2.35-14,10.89-16,17.46,1.89,20,8.75S1911,537.75,1902.49,539.77Z" transform="translate(2 0)"/><path class="cls-5" d="M971.92,975.08c-8.52,2-17.45-1.9-20-8.76s2.39-14,10.92-16,17.46,1.9,20,8.75S980.45,973.07,971.92,975.08Z" transform="translate(2 0)"/><path class="cls-5" d="M1902.49,539.77c-8.53,2-17.46-1.91-20-8.76s2.35-14,10.89-16,17.46,1.89,20,8.75S1911,537.75,1902.49,539.77Z" transform="translate(2 0)"/><path class="cls-5" d="M1902.49,539.77c-8.53,2-17.46-1.91-20-8.76s2.35-14,10.89-16,17.46,1.89,20,8.75S1911,537.75,1902.49,539.77Z" transform="translate(2 0)"/><path class="cls-5" d="M1610.13,703.11c-8.51,2-17.46-1.91-20-8.76s2.38-14,10.91-16,17.45,1.91,20,8.76S1618.67,701.11,1610.13,703.11Z" transform="translate(2 0)"/><path class="cls-5" d="M1878.77,841.78c-8.51,2-17.44-1.91-20-8.77s2.38-14,10.91-16,17.47,1.89,20,8.75S1887.31,839.77,1878.77,841.78Z" transform="translate(2 0)"/><path class="cls-5" d="M1610.13,703.11c-8.51,2-17.46-1.91-20-8.76s2.38-14,10.91-16,17.45,1.91,20,8.76S1618.67,701.11,1610.13,703.11Z" transform="translate(2 0)"/><path class="cls-5" d="M971.92,975.08c-8.52,2-17.45-1.9-20-8.76s2.39-14,10.92-16,17.46,1.9,20,8.75S980.45,973.07,971.92,975.08Z" transform="translate(2 0)"/><path class="cls-5" d="M1610.13,703.11c-8.51,2-17.46-1.91-20-8.76s2.38-14,10.91-16,17.45,1.91,20,8.76S1618.67,701.11,1610.13,703.11Z" transform="translate(2 0)"/><path class="cls-5" d="M971.92,975.08c-8.52,2-17.45-1.9-20-8.76s2.39-14,10.92-16,17.46,1.9,20,8.75S980.45,973.07,971.92,975.08Z" transform="translate(2 0)"/><path class="cls-5" d="M1610.13,703.11c-8.51,2-17.46-1.91-20-8.76s2.38-14,10.91-16,17.45,1.91,20,8.76S1618.67,701.11,1610.13,703.11Z" transform="translate(2 0)"/><path class="cls-5" d="M971.92,975.08c-8.52,2-17.45-1.9-20-8.76s2.39-14,10.92-16,17.46,1.9,20,8.75S980.45,973.07,971.92,975.08Z" transform="translate(2 0)"/><path class="cls-5" d="M971.92,975.08c-8.52,2-17.45-1.9-20-8.76s2.39-14,10.92-16,17.46,1.9,20,8.75S980.45,973.07,971.92,975.08Z" transform="translate(2 0)"/><path class="cls-5" d="M140.47,902c-8.51,2-17.45-1.91-20-8.76s2.38-14,10.9-16.06,17.47,1.93,20,8.78S149,900,140.47,902Z" transform="translate(2 0)"/><path class="cls-5" d="M140.47,902c-8.51,2-17.45-1.91-20-8.76s2.38-14,10.9-16.06,17.47,1.93,20,8.78S149,900,140.47,902Z" transform="translate(2 0)"/><path class="cls-5" d="M1610.13,703.11c-8.51,2-17.46-1.91-20-8.76s2.38-14,10.91-16,17.45,1.91,20,8.76S1618.67,701.11,1610.13,703.11Z" transform="translate(2 0)"/><path class="cls-5" d="M140.47,902c-8.51,2-17.45-1.91-20-8.76s2.38-14,10.9-16.06,17.47,1.93,20,8.78S149,900,140.47,902Z" transform="translate(2 0)"/><path class="cls-5" d="M140.47,902c-8.51,2-17.45-1.91-20-8.76s2.38-14,10.9-16.06,17.47,1.93,20,8.78S149,900,140.47,902Z" transform="translate(2 0)"/><path class="cls-5" d="M971.92,975.08c-8.52,2-17.45-1.9-20-8.76s2.39-14,10.92-16,17.46,1.9,20,8.75S980.45,973.07,971.92,975.08Z" transform="translate(2 0)"/><path class="cls-5" d="M140.47,902c-8.51,2-17.45-1.91-20-8.76s2.38-14,10.9-16.06,17.47,1.93,20,8.78S149,900,140.47,902Z" transform="translate(2 0)"/><path class="cls-5" d="M971.92,975.08c-8.52,2-17.45-1.9-20-8.76s2.39-14,10.92-16,17.46,1.9,20,8.75S980.45,973.07,971.92,975.08Z" transform="translate(2 0)"/><path class="cls-5" d="M140.47,902c-8.51,2-17.45-1.91-20-8.76s2.38-14,10.9-16.06,17.47,1.93,20,8.78S149,900,140.47,902Z" transform="translate(2 0)"/><path class="cls-5" d="M1610.13,703.11c-8.51,2-17.46-1.91-20-8.76s2.38-14,10.91-16,17.45,1.91,20,8.76S1618.67,701.11,1610.13,703.11Z" transform="translate(2 0)"/><path class="cls-5" d="M1807.7,1747.8c-8.52,2-17.46-1.9-20-8.75s2.36-14,10.89-16,17.47,1.91,20,8.76S1816.21,1745.79,1807.7,1747.8Z" transform="translate(2 0)"/><path class="cls-5" d="M1902.49,539.77c-8.53,2-17.46-1.91-20-8.76s2.35-14,10.89-16,17.46,1.89,20,8.75S1911,537.75,1902.49,539.77Z" transform="translate(2 0)"/><path class="cls-5" d="M1807.7,1747.8c-8.52,2-17.46-1.9-20-8.75s2.36-14,10.89-16,17.47,1.91,20,8.76S1816.21,1745.79,1807.7,1747.8Z" transform="translate(2 0)"/><path class="cls-5" d="M1878.77,841.78c-8.51,2-17.44-1.91-20-8.77s2.38-14,10.91-16,17.47,1.89,20,8.75S1887.31,839.77,1878.77,841.78Z" transform="translate(2 0)"/><path class="cls-5" d="M1807.7,1747.8c-8.52,2-17.46-1.9-20-8.75s2.36-14,10.89-16,17.47,1.91,20,8.76S1816.21,1745.79,1807.7,1747.8Z" transform="translate(2 0)"/><path class="cls-5" d="M971.92,975.08c-8.52,2-17.45-1.9-20-8.76s2.39-14,10.92-16,17.46,1.9,20,8.75S980.45,973.07,971.92,975.08Z" transform="translate(2 0)"/><path class="cls-5" d="M1807.7,1747.8c-8.52,2-17.46-1.9-20-8.75s2.36-14,10.89-16,17.47,1.91,20,8.76S1816.21,1745.79,1807.7,1747.8Z" transform="translate(2 0)"/><path class="cls-5" d="M971.92,975.08c-8.52,2-17.45-1.9-20-8.76s2.39-14,10.92-16,17.46,1.9,20,8.75S980.45,973.07,971.92,975.08Z" transform="translate(2 0)"/><path class="cls-5" d="M1807.7,1747.8c-8.52,2-17.46-1.9-20-8.75s2.36-14,10.89-16,17.47,1.91,20,8.76S1816.21,1745.79,1807.7,1747.8Z" transform="translate(2 0)"/><path class="cls-5" d="M1807.7,1747.8c-8.52,2-17.46-1.9-20-8.75s2.36-14,10.89-16,17.47,1.91,20,8.76S1816.21,1745.79,1807.7,1747.8Z" transform="translate(2 0)"/><path class="cls-5" d="M1037.91,1889.17c-8.54,2-17.48-1.91-20-8.75s2.35-14,10.89-16.05,17.45,1.9,19.94,8.77S1046.42,1887.16,1037.91,1889.17Z" transform="translate(2 0)"/><path class="cls-5" d="M140.47,902c-8.51,2-17.45-1.91-20-8.76s2.38-14,10.9-16.06,17.47,1.93,20,8.78S149,900,140.47,902Z" transform="translate(2 0)"/><path class="cls-5" d="M1037.91,1889.17c-8.54,2-17.48-1.91-20-8.75s2.35-14,10.89-16.05,17.45,1.9,19.94,8.77S1046.42,1887.16,1037.91,1889.17Z" transform="translate(2 0)"/><path class="cls-5" d="M1037.91,1889.17c-8.54,2-17.48-1.91-20-8.75s2.35-14,10.89-16.05,17.45,1.9,19.94,8.77S1046.42,1887.16,1037.91,1889.17Z" transform="translate(2 0)"/><path class="cls-5" d="M1610.13,703.11c-8.51,2-17.46-1.91-20-8.76s2.38-14,10.91-16,17.45,1.91,20,8.76S1618.67,701.11,1610.13,703.11Z" transform="translate(2 0)"/><path class="cls-5" d="M1037.91,1889.17c-8.54,2-17.48-1.91-20-8.75s2.35-14,10.89-16.05,17.45,1.9,19.94,8.77S1046.42,1887.16,1037.91,1889.17Z" transform="translate(2 0)"/><path class="cls-5" d="M1878.77,841.78c-8.51,2-17.44-1.91-20-8.77s2.38-14,10.91-16,17.47,1.89,20,8.75S1887.31,839.77,1878.77,841.78Z" transform="translate(2 0)"/><path class="cls-5" d="M1037.91,1889.17c-8.54,2-17.48-1.91-20-8.75s2.35-14,10.89-16.05,17.45,1.9,19.94,8.77S1046.42,1887.16,1037.91,1889.17Z" transform="translate(2 0)"/><path class="cls-5" d="M971.92,975.08c-8.52,2-17.45-1.9-20-8.76s2.39-14,10.92-16,17.46,1.9,20,8.75S980.45,973.07,971.92,975.08Z" transform="translate(2 0)"/><path class="cls-5" d="M1037.91,1889.17c-8.54,2-17.48-1.91-20-8.75s2.35-14,10.89-16.05,17.45,1.9,19.94,8.77S1046.42,1887.16,1037.91,1889.17Z" transform="translate(2 0)"/><path class="cls-5" d="M971.92,975.08c-8.52,2-17.45-1.9-20-8.76s2.39-14,10.92-16,17.46,1.9,20,8.75S980.45,973.07,971.92,975.08Z" transform="translate(2 0)"/><path class="cls-5" d="M1037.91,1889.17c-8.54,2-17.48-1.91-20-8.75s2.35-14,10.89-16.05,17.45,1.9,19.94,8.77S1046.42,1887.16,1037.91,1889.17Z" transform="translate(2 0)"/><path class="cls-5" d="M2688.59,488.87c-8.52,2-17.47-1.91-20-8.77s2.37-14,10.89-16,17.47,1.9,20,8.76S2697.1,486.85,2688.59,488.87Z" transform="translate(2 0)"/><path class="cls-5" d="M1610.13,703.11c-8.51,2-17.46-1.91-20-8.76s2.38-14,10.91-16,17.45,1.91,20,8.76S1618.67,701.11,1610.13,703.11Z" transform="translate(2 0)"/><path class="cls-5" d="M2688.59,488.87c-8.52,2-17.47-1.91-20-8.77s2.37-14,10.89-16,17.47,1.9,20,8.76S2697.1,486.85,2688.59,488.87Z" transform="translate(2 0)"/><path class="cls-5" d="M1902.49,539.77c-8.53,2-17.46-1.91-20-8.76s2.35-14,10.89-16,17.46,1.89,20,8.75S1911,537.75,1902.49,539.77Z" transform="translate(2 0)"/><path class="cls-5" d="M2688.59,488.87c-8.52,2-17.47-1.91-20-8.77s2.37-14,10.89-16,17.47,1.9,20,8.76S2697.1,486.85,2688.59,488.87Z" transform="translate(2 0)"/><path class="cls-5" d="M1878.77,841.78c-8.51,2-17.44-1.91-20-8.77s2.38-14,10.91-16,17.47,1.89,20,8.75S1887.31,839.77,1878.77,841.78Z" transform="translate(2 0)"/><path class="cls-5" d="M2688.59,488.87c-8.52,2-17.47-1.91-20-8.77s2.37-14,10.89-16,17.47,1.9,20,8.76S2697.1,486.85,2688.59,488.87Z" transform="translate(2 0)"/><path class="cls-5" d="M1807.7,1747.8c-8.52,2-17.46-1.9-20-8.75s2.36-14,10.89-16,17.47,1.91,20,8.76S1816.21,1745.79,1807.7,1747.8Z" transform="translate(2 0)"/><path class="cls-5" d="M2670.88,1907.74c-8.51,2-17.46-1.9-20-8.75s2.36-14,10.89-16,17.47,1.91,20,8.75S2679.42,1905.73,2670.88,1907.74Z" transform="translate(2 0)"/><path class="cls-5" d="M1878.77,841.78c-8.51,2-17.44-1.91-20-8.77s2.38-14,10.91-16,17.47,1.89,20,8.75S1887.31,839.77,1878.77,841.78Z" transform="translate(2 0)"/><path class="cls-5" d="M2670.88,1907.74c-8.51,2-17.46-1.9-20-8.75s2.36-14,10.89-16,17.47,1.91,20,8.75S2679.42,1905.73,2670.88,1907.74Z" transform="translate(2 0)"/><path class="cls-5" d="M2670.88,1907.74c-8.51,2-17.46-1.9-20-8.75s2.36-14,10.89-16,17.47,1.91,20,8.75S2679.42,1905.73,2670.88,1907.74Z" transform="translate(2 0)"/><path class="cls-5" d="M2961.53,1327.13c-8.52,2-17.45-1.93-20-8.76s2.38-14,10.89-16.06,17.48,1.92,20,8.75S2970.07,1325.1,2961.53,1327.13Z" transform="translate(2 0)"/><path class="cls-5" d="M2688.59,488.87c-8.52,2-17.47-1.91-20-8.77s2.37-14,10.89-16,17.47,1.9,20,8.76S2697.1,486.85,2688.59,488.87Z" transform="translate(2 0)"/><path class="cls-5" d="M2961.53,1327.13c-8.52,2-17.45-1.93-20-8.76s2.38-14,10.89-16.06,17.48,1.92,20,8.75S2970.07,1325.1,2961.53,1327.13Z" transform="translate(2 0)"/><path class="cls-5" d="M2961.53,1327.13c-8.52,2-17.45-1.93-20-8.76s2.38-14,10.89-16.06,17.48,1.92,20,8.75S2970.07,1325.1,2961.53,1327.13Z" transform="translate(2 0)"/><path class="cls-5" d="M1807.7,1747.8c-8.52,2-17.46-1.9-20-8.75s2.36-14,10.89-16,17.47,1.91,20,8.76S1816.21,1745.79,1807.7,1747.8Z" transform="translate(2 0)"/><path class="cls-5" d="M2961.53,1327.13c-8.52,2-17.45-1.93-20-8.76s2.38-14,10.89-16.06,17.48,1.92,20,8.75S2970.07,1325.1,2961.53,1327.13Z" transform="translate(2 0)"/><path class="cls-5" d="M1610.13,703.11c-8.51,2-17.46-1.91-20-8.76s2.38-14,10.91-16,17.45,1.91,20,8.76S1618.67,701.11,1610.13,703.11Z" transform="translate(2 0)"/><path class="cls-5" d="M2961.53,1327.13c-8.52,2-17.45-1.93-20-8.76s2.38-14,10.89-16.06,17.48,1.92,20,8.75S2970.07,1325.1,2961.53,1327.13Z" transform="translate(2 0)"/><path class="cls-5" d="M1902.49,539.77c-8.53,2-17.46-1.91-20-8.76s2.35-14,10.89-16,17.46,1.89,20,8.75S1911,537.75,1902.49,539.77Z" transform="translate(2 0)"/><path class="cls-5" d="M2961.53,1327.13c-8.52,2-17.45-1.93-20-8.76s2.38-14,10.89-16.06,17.48,1.92,20,8.75S2970.07,1325.1,2961.53,1327.13Z" transform="translate(2 0)"/><path class="cls-5" d="M1878.77,841.78c-8.51,2-17.44-1.91-20-8.77s2.38-14,10.91-16,17.47,1.89,20,8.75S1887.31,839.77,1878.77,841.78Z" transform="translate(2 0)"/><path class="cls-5" d="M2961.53,1327.13c-8.52,2-17.45-1.93-20-8.76s2.38-14,10.89-16.06,17.48,1.92,20,8.75S2970.07,1325.1,2961.53,1327.13Z" transform="translate(2 0)"/><path class="cls-5" d="M2961.53,1327.13c-8.52,2-17.45-1.93-20-8.76s2.38-14,10.89-16.06,17.48,1.92,20,8.75S2970.07,1325.1,2961.53,1327.13Z" transform="translate(2 0)"/><path class="cls-5" d="M3259.06,1957.48c-8.51,2-17.44-1.92-20-8.77s2.4-14,10.9-16,17.47,1.9,20,8.76S3267.59,1955.45,3259.06,1957.48Z" transform="translate(2 0)"/><path class="cls-5" d="M2961.53,1327.13c-8.52,2-17.45-1.93-20-8.76s2.38-14,10.89-16.06,17.48,1.92,20,8.75S2970.07,1325.1,2961.53,1327.13Z" transform="translate(2 0)"/><path class="cls-5" d="M3259.06,1957.48c-8.51,2-17.44-1.92-20-8.77s2.4-14,10.9-16,17.47,1.9,20,8.76S3267.59,1955.45,3259.06,1957.48Z" transform="translate(2 0)"/><path class="cls-5" d="M2670.88,1907.74c-8.51,2-17.46-1.9-20-8.75s2.36-14,10.89-16,17.47,1.91,20,8.75S2679.42,1905.73,2670.88,1907.74Z" transform="translate(2 0)"/><path class="cls-5" d="M3259.06,1957.48c-8.51,2-17.44-1.92-20-8.77s2.4-14,10.9-16,17.47,1.9,20,8.76S3267.59,1955.45,3259.06,1957.48Z" transform="translate(2 0)"/><path class="cls-5" d="M3259.06,1957.48c-8.51,2-17.44-1.92-20-8.77s2.4-14,10.9-16,17.47,1.9,20,8.76S3267.59,1955.45,3259.06,1957.48Z" transform="translate(2 0)"/><path class="cls-5" d="M1807.7,1747.8c-8.52,2-17.46-1.9-20-8.75s2.36-14,10.89-16,17.47,1.91,20,8.76S1816.21,1745.79,1807.7,1747.8Z" transform="translate(2 0)"/><path class="cls-5" d="M3259.06,1957.48c-8.51,2-17.44-1.92-20-8.77s2.4-14,10.9-16,17.47,1.9,20,8.76S3267.59,1955.45,3259.06,1957.48Z" transform="translate(2 0)"/></g></g></g></svg>